<svg xmlns="http://www.w3.org/2000/svg" viewBox="0 0 512 512">
  <defs>
    <linearGradient id="grad" x1="0%" y1="0%" x2="100%" y2="100%">
      <stop offset="0%" style="stop-color:#3b82f6;stop-opacity:1" />
      <stop offset="100%" style="stop-color:#1d4ed8;stop-opacity:1" />
    </linearGradient>
  </defs>
  <rect width="512" height="512" rx="96" fill="url(#grad)"/>
  <g transform="translate(96, 96)" fill="none" stroke="white" stroke-width="20" stroke-linecap="round" stroke-linejoin="round">
    <path d="M160 40 L280 100 L280 220 L160 280 L40 220 L40 100 Z"/>
    <path d="M160 40 L160 160"/>
    <path d="M40 100 L160 160 L280 100"/>
    <line x1="80" y1="180" x2="80" y2="240"/>
    <line x1="100" y1="180" x2="100" y2="240"/>
    <line x1="130" y1="180" x2="130" y2="240"/>
    <line x1="150" y1="180" x2="150" y2="240"/>
    <line x1="170" y1="180" x2="170" y2="240"/>
    <line x1="200" y1="180" x2="200" y2="240"/>
    <line x1="220" y1="180" x2="220" y2="240"/>
    <line x1="240" y1="180" x2="240" y2="240"/>
  </g>
</svg>
